# xmcd
#
# Track frame offsets: 
#        150
#        15138
#        31344
#        45692
#        62457
#        78810
#        92630
#        106257
#        123191
#        138106
#        169337
#        194199
#        204445
#        214372
#
# Disc length: 3063 seconds
#
# Revision: 2
# Processed by: cddbd v1.5.2PL0 Copyright (c) Steve Scherf et al.
# Submitted via: ExactAudioCopy v1.0b3
#
DISCID=b40bf50e
DTITLE=Ike and Tina Turner Revue - Live and Dangerous
DYEAR=1999
DGENRE=R&B
TTITLE0=What You See Is What You Get
TTITLE1=I Want to Take You Higher
TTITLE2=I wish It Would Rain
TTITLE3=One More Day
TTITLE4=I Can't Stop Loving You
TTITLE5=Ooh Poo Pah Doo
TTITLE6=Twist and Shout
TTITLE7=Stand by Me
TTITLE8=It's All Over
TTITLE9=Proud Mary
TTITLE10=All I Could Do Was Cry
TTITLE11=Suffering the Blues
TTITLE12=Keep on Pushin'
TTITLE13=I Heard It Through the Grapevine
EXTD=
EXTT0=
EXTT1=
EXTT2=
EXTT3=
EXTT4=
EXTT5=
EXTT6=
EXTT7=
EXTT8=
EXTT9=
EXTT10=
EXTT11=
EXTT12=
EXTT13=
PLAYORDER=
